<?xml version="1.0"?>
<svg xmlns="http://www.w3.org/2000/svg" height="512px" viewBox="0 0 60 60" width="512px" class=""><g><g id="Page-1" fill="none" fill-rule="evenodd"><g id="012---Farm-House" fill-rule="nonzero" transform="translate(-1)"><path id="Shape" d="m58.84 30.82c-.2609373.1176786-.5437561.1790128-.83.18-.7775239-.0019637-1.4834414-.4543749-1.81-1.16l-.2-.43-6.49-14.08c-.2798216-.6109667-.7595299-1.1083113-1.36-1.41l-16.25-8.25c-.5673487-.27993421-1.2326513-.27993421-1.8 0l-16.25 8.25c-.6004701.3016887-1.0801784.7990333-1.36 1.41l-6.49 14.08-.2.43c-.38921626.8518136-1.31969635 1.3169712-2.23464865 1.1171263-.9149523-.1998448-1.56674526-1.0106042-1.56535135-1.9471263.00098716-.2862439.06232138-.5690627.18-.83l7.28-15.77c.27982165-.6109667.7595299-1.1083113 1.36-1.41l19.28-9.79c.5673487-.27993421 1.2326513-.27993421 1.8 0l19.28 9.79c.6004701.3016887 1.0801784.7990333 1.36 1.41l7.28 15.77c.2204685.4799966.2410609 1.0279523.0572403 1.5231422-.1838205.49519-.5569712.8969834-1.0372403 1.1168578z" fill="#cfd8dc" data-original="#CFD8DC"/><path id="Shape" d="m59.82 28.18-7.28-15.77c-.2798216-.6109667-.7595299-1.1083113-1.36-1.41l-19.28-9.79c-.5673487-.27993421-1.2326513-.27993421-1.8 0l-.6.3 18.68 9.49c.6004701.3016887 1.0801784.7990333 1.36 1.41l7.28 15.77c.325564.7100323.2042114 1.5450166-.31 2.133.3778537.4341691.9244394.6845054 1.5.687.2862439-.0009872.5690627-.0623214.83-.18.4802691-.2198744.8534198-.6216678 1.0372403-1.1168578.1838206-.4951899.1632282-1.0431456-.0572403-1.5231422z" fill="#9e9e9e" data-original="#9E9E9E"/><path id="Shape" d="m56 29.41v29.59h-50v-29.59l6.49-14.08c.2798216-.6109667.7595299-1.1083113 1.36-1.41l16.25-8.25c.5673487-.27993421 1.2326513-.27993421 1.8 0l16.25 8.25c.6004701.3016887 1.0801784.7990333 1.36 1.41z" fill="#f44335" data-original="#F44335" class="active-path" style="fill:#FF9801" data-old_color="#f44335"/><path id="Shape" d="m49.51 15.33c-.2798216-.6109667-.7595299-1.1083113-1.36-1.41l-16.25-8.25c-.5673487-.27993421-1.2326513-.27993421-1.8 0l-.6.3 15.65 7.95c.6004701.3016887 1.0801784.7990333 1.36 1.41l6.49 14.08v29.59h3v-29.59z" fill="#c81e1e" data-original="#C81E1E" class=""/><path id="Shape" d="m18 35h26c1.1045695 0 2 .8954305 2 2v22h-30v-22c0-1.1045695.8954305-2 2-2z" fill="#a0522d" data-original="#A0522D"/><path id="Shape" d="m44 35h-3c1.1045695 0 2 .8954305 2 2v22h3v-22c0-1.1045695-.8954305-2-2-2z" fill="#783e22" data-original="#783E22" class=""/><rect id="Rectangle-path" fill="#02a9f4" height="10" rx="1" width="10" x="26" y="16" data-original="#02A9F4"/><path id="Shape" d="m42 40v19h-22v-19c.003815-.5506968.4493032-.996185 1-1h20c.5506968.003815.996185.4493032 1 1z" fill="#ff9801" data-original="#FF9801"/><path id="Shape" d="m41.69 39.28c-.1853775-.1786807-.4325305-.2789747-.69-.28h-3c.5506968.003815.996185.4493032 1 1v19h3v-19c-.0010388-.2721876-.1129847-.5321912-.31-.72z" fill="#f57c00" data-original="#F57C00"/><g fill="#000"><path id="Shape" d="m27 27h8c1.1045695 0 2-.8954305 2-2v-8c0-1.1045695-.8954305-2-2-2h-8c-1.1045695 0-2 .8954305-2 2v8c0 1.1045695.8954305 2 2 2zm0-10h8v8h-8z" data-original="#000" class=""/><path id="Shape" d="m17 30c0 .5522847.4477153 1 1 1h33c.5522847 0 1-.4477153 1-1s-.4477153-1-1-1h-33c-.5522847 0-1 .4477153-1 1z" data-original="#000" class=""/><path id="Shape" d="m13 26h9c.5522847 0 1-.4477153 1-1s-.4477153-1-1-1h-9c-.5522847 0-1 .4477153-1 1s.4477153 1 1 1z" data-original="#000" class=""/><path id="Shape" d="m15 21h7c.5522847 0 1-.4477153 1-1s-.4477153-1-1-1h-7c-.5522847 0-1 .4477153-1 1s.4477153 1 1 1z" data-original="#000" class=""/><path id="Shape" d="m29 12h4c.5522847 0 1-.4477153 1-1s-.4477153-1-1-1h-4c-.5522847 0-1 .4477153-1 1s.4477153 1 1 1z" data-original="#000" class=""/><path id="Shape" d="m20 16h2c.5522847 0 1-.4477153 1-1s-.4477153-1-1-1h-2c-.5522847 0-1 .4477153-1 1s.4477153 1 1 1z" data-original="#000" class=""/><path id="Shape" d="m40 26h9c.5522847 0 1-.4477153 1-1s-.4477153-1-1-1h-9c-.5522847 0-1 .4477153-1 1s.4477153 1 1 1z" data-original="#000" class=""/><path id="Shape" d="m40 21h7c.5522847 0 1-.4477153 1-1s-.4477153-1-1-1h-7c-.5522847 0-1 .4477153-1 1s.4477153 1 1 1z" data-original="#000" class=""/><path id="Shape" d="m40 16h2c.5522847 0 1-.4477153 1-1s-.4477153-1-1-1h-2c-.5522847 0-1 .4477153-1 1s.4477153 1 1 1z" data-original="#000" class=""/><path id="Shape" d="m15 30c0-.5522847-.4477153-1-1-1h-3c-.5522847 0-1 .4477153-1 1s.4477153 1 1 1h3c.5522847 0 1-.4477153 1-1z" data-original="#000" class=""/><path id="Shape" d="m13 34h-3c-.55228475 0-1 .4477153-1 1s.44771525 1 1 1h3c.5522847 0 1-.4477153 1-1s-.4477153-1-1-1z" data-original="#000" class=""/><path id="Shape" d="m12 39h-2c-.55228475 0-1 .4477153-1 1s.44771525 1 1 1h2c.5522847 0 1-.4477153 1-1s-.4477153-1-1-1z" data-original="#000" class=""/><path id="Shape" d="m12 44h-2c-.55228475 0-1 .4477153-1 1s.44771525 1 1 1h2c.5522847 0 1-.4477153 1-1s-.4477153-1-1-1z" data-original="#000" class=""/><path id="Shape" d="m12 49h-2c-.55228475 0-1 .4477153-1 1s.44771525 1 1 1h2c.5522847 0 1-.4477153 1-1s-.4477153-1-1-1z" data-original="#000" class=""/><path id="Shape" d="m12 54h-2c-.55228475 0-1 .4477153-1 1s.44771525 1 1 1h2c.5522847 0 1-.4477153 1-1s-.4477153-1-1-1z" data-original="#000" class=""/><path id="Shape" d="m49 34c-.5522847 0-1 .4477153-1 1s.4477153 1 1 1h3c.5522847 0 1-.4477153 1-1s-.4477153-1-1-1z" data-original="#000" class=""/><path id="Shape" d="m52 39h-2c-.5522847 0-1 .4477153-1 1s.4477153 1 1 1h2c.5522847 0 1-.4477153 1-1s-.4477153-1-1-1z" data-original="#000" class=""/><path id="Shape" d="m52 44h-2c-.5522847 0-1 .4477153-1 1s.4477153 1 1 1h2c.5522847 0 1-.4477153 1-1s-.4477153-1-1-1z" data-original="#000" class=""/><path id="Shape" d="m52 49h-2c-.5522847 0-1 .4477153-1 1s.4477153 1 1 1h2c.5522847 0 1-.4477153 1-1s-.4477153-1-1-1z" data-original="#000" class=""/><path id="Shape" d="m52 54h-2c-.5522847 0-1 .4477153-1 1s.4477153 1 1 1h2c.5522847 0 1-.4477153 1-1s-.4477153-1-1-1z" data-original="#000" class=""/><path id="Shape" d="m2 60h58c.5522847 0 1-.4477153 1-1s-.4477153-1-1-1h-3v-26.186c1.1313605.4107476 2.3987323.1010809 3.2132027-.7851066s1.0163367-2.1751307.5117973-3.2678934l-7.273-15.772c-.3761438-.8135031-1.0150991-1.4767627-1.814-1.883l-19.286-9.783c-.8505036-.42956741-1.8544964-.42956741-2.705 0l-19.284 9.782c-.79906323.4068188-1.43826479 1.0703206-1.815 1.884l-7.273 15.772c-.50598809 1.0931108-.3048976 2.38327.50976203 3.2705382.81465964.8872682 2.083004 1.197511 3.21523797.7864618v26.182h-3c-.55228475 0-1 .4477153-1 1s.44771525 1 1 1zm19-18.741 8.513 7.741-8.513 7.739zm10 9.091 8.414 7.65h-16.828zm10 6.389-8.513-7.739 8.513-7.741zm-10-9.092-8.411-7.647h16.822zm12 10.353v-18c0-1.1045695-.8954305-2-2-2h-20c-1.1045695 0-2 .8954305-2 2v18h-2v-21c0-.5522847.4477153-1 1-1h26c.5522847 0 1 .4477153 1 1v21zm-39.425-28.091c-.49518503-.2282919-.71180177-.8145893-.484-1.31l7.273-15.772c.1863448-.4047319.5033158-.7350862.9-.938l19.287-9.782c.2830476-.14262859.6169524-.14262859.9 0l19.282 9.783c.3967082.2024065.7137318.5324633.9.937l7.276 15.773c.2278018.4954107.011185 1.0817081-.484 1.31-.4962857.2274362-1.0830696.011135-1.313-.484l-6.693-14.517c-.3784035-.8138721-1.0189097-1.4772661-1.819-1.884l-16.247-8.243c-.8501579-.43101632-1.8548421-.43101632-2.705 0l-16.248 8.243c-.7985962.4074491-1.4376176 1.0707638-1.815 1.884l-6.697 14.516c-.22952815.4955713-.81673717.7120292-1.313.484zm3.425-.288 6.4-13.874c.1863448-.4047319.5033158-.7350862.9-.938l16.253-8.244c.281684-.14095476.613316-.14095476.895 0l16.252 8.244c.3966842.2029138.7136552.5332681.9.938l6.4 13.874v28.379h-8v-21c0-1.6568542-1.3431458-3-3-3h-26c-1.6568542 0-3 1.3431458-3 3v21h-8z" data-original="#000" class=""/></g><path id="Shape" d="m30 23c-.4043959-.0000863-.7689341-.2437275-.923678-.6173454-.1547439-.373618-.0692299-.8036603.216678-1.0896546l2-2c.3923789-.3789722 1.0160848-.3735524 1.4018186.0121814s.3911536 1.0094397.0121814 1.4018186l-2 2c-.1874927.1875494-.4418052.2929434-.707.293z" fill="#f5f5f5" data-original="#F5F5F5" class="" style="fill:#FF9801" data-old_color="#f5f5f5"/></g></g></g> </svg>
