<svg xmlns="http://www.w3.org/2000/svg" height="512" viewBox="0 0 60 60" width="512"><g fill-rule="nonzero" transform="translate(-1)" fill="none"><path d="M58.84 30.82a2 2 0 0 1-2.64-.98l-.2-.43-6.49-14.08a2.955 2.955 0 0 0-1.36-1.41L31.9 5.67a2.034 2.034 0 0 0-1.8 0l-16.25 8.25c-.6.302-1.08.799-1.36 1.41L6 29.41l-.2.43a1.99 1.99 0 1 1-3.62-1.66l7.28-15.77c.28-.611.76-1.108 1.36-1.41L30.1 1.21a2.034 2.034 0 0 1 1.8 0L51.18 11c.6.302 1.08.799 1.36 1.41l7.28 15.77a1.99 1.99 0 0 1-.98 2.64z" fill="#cfd8dc" data-original="#CFD8DC"/><path d="M59.82 28.18l-7.28-15.77A2.955 2.955 0 0 0 51.18 11L31.9 1.21a2.034 2.034 0 0 0-1.8 0l-.6.3L48.18 11c.6.302 1.08.799 1.36 1.41l7.28 15.77c.326.71.204 1.545-.31 2.133a2 2 0 0 0 1.5.687 1.99 1.99 0 0 0 1.81-2.82z" fill="#9e9e9e" data-original="#9E9E9E"/><path d="M56 29.41V59H6V29.41l6.49-14.08c.28-.611.76-1.108 1.36-1.41L30.1 5.67a2.034 2.034 0 0 1 1.8 0l16.25 8.25c.6.302 1.08.799 1.36 1.41z" fill="#ff9801" data-original="#F44335" class="active-path" data-old_color="#f44335"/><path d="M49.51 15.33a2.955 2.955 0 0 0-1.36-1.41L31.9 5.67a2.034 2.034 0 0 0-1.8 0l-.6.3 15.65 7.95c.6.302 1.08.799 1.36 1.41L53 29.41V59h3V29.41z" fill="#c81e1e" data-original="#C81E1E"/><path d="M18 35h26a2 2 0 0 1 2 2v22H16V37a2 2 0 0 1 2-2z" fill="sienna" data-original="#A0522D"/><path d="M44 35h-3a2 2 0 0 1 2 2v22h3V37a2 2 0 0 0-2-2z" fill="#783e22" data-original="#783E22"/><rect fill="#02a9f4" height="10" rx="1" width="10" x="26" y="16" data-original="#02A9F4"/><path d="M42 40v19H20V40c.004-.55.45-.996 1-1h20c.55.004.996.45 1 1z" fill="#ff9801" data-original="#FF9801"/><path d="M41.69 39.28A1 1 0 0 0 41 39h-3c.55.004.996.45 1 1v19h3V40a1 1 0 0 0-.31-.72z" fill="#f57c00" data-original="#F57C00"/><g fill="#000"><path d="M27 27h8a2 2 0 0 0 2-2v-8a2 2 0 0 0-2-2h-8a2 2 0 0 0-2 2v8a2 2 0 0 0 2 2zm0-10h8v8h-8zM17 30a1 1 0 0 0 1 1h33a1 1 0 0 0 0-2H18a1 1 0 0 0-1 1zM13 26h9a1 1 0 0 0 0-2h-9a1 1 0 0 0 0 2zM15 21h7a1 1 0 0 0 0-2h-7a1 1 0 0 0 0 2zM29 12h4a1 1 0 0 0 0-2h-4a1 1 0 0 0 0 2zM20 16h2a1 1 0 0 0 0-2h-2a1 1 0 0 0 0 2zM40 26h9a1 1 0 0 0 0-2h-9a1 1 0 0 0 0 2zM40 21h7a1 1 0 0 0 0-2h-7a1 1 0 0 0 0 2zM40 16h2a1 1 0 0 0 0-2h-2a1 1 0 0 0 0 2zM15 30a1 1 0 0 0-1-1h-3a1 1 0 0 0 0 2h3a1 1 0 0 0 1-1zM13 34h-3a1 1 0 0 0 0 2h3a1 1 0 0 0 0-2zM12 39h-2a1 1 0 0 0 0 2h2a1 1 0 0 0 0-2zM12 44h-2a1 1 0 0 0 0 2h2a1 1 0 0 0 0-2zM12 49h-2a1 1 0 0 0 0 2h2a1 1 0 0 0 0-2zM12 54h-2a1 1 0 0 0 0 2h2a1 1 0 0 0 0-2zM49 34a1 1 0 0 0 0 2h3a1 1 0 0 0 0-2zM52 39h-2a1 1 0 0 0 0 2h2a1 1 0 0 0 0-2zM52 44h-2a1 1 0 0 0 0 2h2a1 1 0 0 0 0-2zM52 49h-2a1 1 0 0 0 0 2h2a1 1 0 0 0 0-2zM52 54h-2a1 1 0 0 0 0 2h2a1 1 0 0 0 0-2z" data-original="#000"/><path d="M2 60h58a1 1 0 0 0 0-2h-3V31.814a2.982 2.982 0 0 0 3.725-4.053l-7.273-15.772a3.992 3.992 0 0 0-1.814-1.883L32.352.323a3 3 0 0 0-2.705 0l-19.284 9.782a4 4 0 0 0-1.815 1.884L1.275 27.761A2.983 2.983 0 0 0 5 31.818V58H2a1 1 0 0 0 0 2zm19-18.741L29.513 49 21 56.739zm10 9.091L39.414 58H22.586zm10 6.389L32.487 49 41 41.259zm-10-9.092L22.589 40h16.822zM43 58V40a2 2 0 0 0-2-2H21a2 2 0 0 0-2 2v18h-2V37a1 1 0 0 1 1-1h26a1 1 0 0 1 1 1v21zM3.575 29.909a.988.988 0 0 1-.484-1.31l7.273-15.772c.186-.405.503-.735.9-.938l19.287-9.782a1 1 0 0 1 .9 0l19.282 9.783c.397.202.714.532.9.937L58.909 28.6a.988.988 0 1 1-1.797.826l-6.693-14.517a4.01 4.01 0 0 0-1.819-1.884L32.353 4.782a2.991 2.991 0 0 0-2.705 0L13.4 13.025a4.01 4.01 0 0 0-1.815 1.884L4.888 29.425a.991.991 0 0 1-1.313.484zM7 29.621l6.4-13.874c.186-.405.503-.735.9-.938l16.253-8.244a1 1 0 0 1 .895 0L47.7 14.809c.397.203.714.533.9.938L55 29.621V58h-8V37a3 3 0 0 0-3-3H18a3 3 0 0 0-3 3v21H7z" data-original="#000"/></g><path d="M30 23a1 1 0 0 1-.707-1.707l2-2a1 1 0 0 1 1.414 1.414l-2 2A1 1 0 0 1 30 23z" fill="#ff9801" data-original="#F5F5F5" data-old_color="#f5f5f5"/></g></svg>