<svg xmlns="http://www.w3.org/2000/svg" height="512" width="512" class="hovered-paths"><path d="M401 497V307a15 15 0 0 1 21.708-13.416l60 30A14.998 14.998 0 0 1 491 337v160z" fill="#fb5252" data-original="#0FA7DA" data-old_color="#0fa7da"/><path d="M316 90H196c-8.284 0-15-6.716-15-15V15c0-8.284 6.716-15 15-15h120c8.284 0 15 6.716 15 15v60c0 8.284-6.716 15-15 15z" fill="#5379ab" data-original="#00429B" data-old_color="#00429b"/><path d="M316 0h-60v90h60c8.284 0 15-6.716 15-15V15c0-8.284-6.716-15-15-15z" fill="#00337a" data-original="#00337A"/><path d="M161 497V75c0-8.284 6.716-15 15-15h160c8.284 0 15 6.716 15 15v422z" fill="#ffce00" data-original="#7DD5F4" class="hovered-path active-path" data-old_color="#7dd5f4"/><path d="M336 60h-80v437h95V75c0-8.284-6.716-15-15-15z" fill="#fb5252" data-original="#0FA7DA" data-old_color="#0fa7da"/><path d="M281 497V197a15.003 15.003 0 0 1 7.114-12.76 15.002 15.002 0 0 1 14.594-.656l120 60A14.998 14.998 0 0 1 431 257v240z" fill="#dadfe7" data-original="#DADFE7"/><path d="M81 497V147c0-8.284 6.716-15 15-15h120c8.284 0 15 6.716 15 15v350z" fill="#f6f9f9" data-original="#F6F9F9"/><path d="M156 252c-8.284 0-15-6.716-15-15v-30c0-8.284 6.716-15 15-15s15 6.716 15 15v30c0 8.284-6.716 15-15 15z" fill="#c8ffff" data-original="#C8FFFF"/><path d="M21 497V382c0-8.284 6.716-15 15-15h120c8.284 0 15 6.716 15 15v115z" fill="#5379ab" data-original="#00429B" data-old_color="#00429b"/><path d="M356 352c-8.284 0-15-6.716-15-15v-30c0-8.284 6.716-15 15-15s15 6.716 15 15v30c0 8.284-6.716 15-15 15z" fill="#98f9ff" data-original="#98F9FF"/><path d="M156 342c-8.284 0-15-6.716-15-15v-30c0-8.284 6.716-15 15-15s15 6.716 15 15v30c0 8.284-6.716 15-15 15z" fill="#c8ffff" data-original="#C8FFFF"/><path d="M356 442c-8.284 0-15-6.716-15-15v-30c0-8.284 6.716-15 15-15s15 6.716 15 15v30c0 8.284-6.716 15-15 15z" fill="#98f9ff" data-original="#98F9FF"/><path d="M96 502c-8.284 0-15-6.716-15-15v-40c0-8.284 6.716-15 15-15s15 6.716 15 15v40c0 8.284-6.716 15-15 15z" fill="#c8ffff" data-original="#C8FFFF"/><path d="M497 512H15c-8.284 0-15-6.716-15-15s6.716-15 15-15h482c8.284 0 15 6.716 15 15s-6.716 15-15 15z" fill="#96ef67" data-original="#96EF67"/><path d="M497 482H256v30h241c8.284 0 15-6.716 15-15s-6.716-15-15-15z" fill="#ffce00" data-original="#00A763" data-old_color="#00a763"/></svg>