<?xml version="1.0"?>
<svg xmlns="http://www.w3.org/2000/svg" id="Capa_1" enable-background="new 0 0 512 512" height="512px" viewBox="0 0 512 512" width="512px" class="hovered-paths"><g><g><path d="m401 497v-190c0-5.198 2.692-10.026 7.114-12.76 4.422-2.733 9.944-2.981 14.594-.656l60 30c5.082 2.54 8.292 7.734 8.292 13.416v160z" fill="#0fa7da" data-original="#0FA7DA" class="" data-old_color="#0fa7da" style="fill:#FB5252"/><path d="m316 90h-120c-8.284 0-15-6.716-15-15v-60c0-8.284 6.716-15 15-15h120c8.284 0 15 6.716 15 15v60c0 8.284-6.716 15-15 15z" fill="#00429b" data-original="#00429B" class="" data-old_color="#00429b" style="fill:#5379AB"/><path d="m316 0h-60v90h60c8.284 0 15-6.716 15-15v-60c0-8.284-6.716-15-15-15z" fill="#00337a" data-original="#00337A" class=""/><path d="m161 497v-422c0-8.284 6.716-15 15-15h160c8.284 0 15 6.716 15 15v422z" fill="#7dd5f4" data-original="#7DD5F4" class="hovered-path active-path" data-old_color="#7dd5f4" style="fill:#FFCE00"/><path d="m336 60h-80v437h95v-422c0-8.284-6.716-15-15-15z" fill="#0fa7da" data-original="#0FA7DA" class="" data-old_color="#0fa7da" style="fill:#FB5252"/><path d="m281 497v-300c0-5.198 2.692-10.026 7.114-12.76 4.423-2.732 9.945-2.981 14.594-.656l120 60c5.082 2.54 8.292 7.734 8.292 13.416v240z" fill="#dadfe7" data-original="#DADFE7" class=""/><path d="m81 497v-350c0-8.284 6.716-15 15-15h120c8.284 0 15 6.716 15 15v350z" fill="#f6f9f9" data-original="#F6F9F9" class=""/><path d="m156 252c-8.284 0-15-6.716-15-15v-30c0-8.284 6.716-15 15-15s15 6.716 15 15v30c0 8.284-6.716 15-15 15z" fill="#c8ffff" data-original="#C8FFFF" class=""/><path d="m21 497v-115c0-8.284 6.716-15 15-15h120c8.284 0 15 6.716 15 15v115z" fill="#00429b" data-original="#00429B" class="" data-old_color="#00429b" style="fill:#5379AB"/><path d="m356 352c-8.284 0-15-6.716-15-15v-30c0-8.284 6.716-15 15-15s15 6.716 15 15v30c0 8.284-6.716 15-15 15z" fill="#98f9ff" data-original="#98F9FF" class=""/><path d="m156 342c-8.284 0-15-6.716-15-15v-30c0-8.284 6.716-15 15-15s15 6.716 15 15v30c0 8.284-6.716 15-15 15z" fill="#c8ffff" data-original="#C8FFFF" class=""/><path d="m356 442c-8.284 0-15-6.716-15-15v-30c0-8.284 6.716-15 15-15s15 6.716 15 15v30c0 8.284-6.716 15-15 15z" fill="#98f9ff" data-original="#98F9FF" class=""/><path d="m96 502c-8.284 0-15-6.716-15-15v-40c0-8.284 6.716-15 15-15s15 6.716 15 15v40c0 8.284-6.716 15-15 15z" fill="#c8ffff" data-original="#C8FFFF" class=""/><path d="m497 512h-482c-8.284 0-15-6.716-15-15s6.716-15 15-15h482c8.284 0 15 6.716 15 15s-6.716 15-15 15z" fill="#96ef67" data-original="#96EF67" class=""/><path d="m497 482h-241v30h241c8.284 0 15-6.716 15-15s-6.716-15-15-15z" fill="#00a763" data-original="#00A763" class="" style="fill:#FFCE00" data-old_color="#00a763"/></g></g> </svg>
