<?xml version="1.0"?>
<svg xmlns="http://www.w3.org/2000/svg" xmlns:xlink="http://www.w3.org/1999/xlink" version="1.1" id="Capa_1" x="0px" y="0px" viewBox="0 0 464 464" style="enable-background:new 0 0 464 464;" xml:space="preserve" width="512px" height="512px" class="hovered-paths"><g><path style="fill:#E6E6E6;" d="M96,4h272v456H96V4z" data-original="#E6E6E6" class=""/><path style="fill:#B3B3B3;" d="M368,76h96v376h-96V76z" data-original="#B3B3B3" class=""/><path style="fill:#194C80" d="M0,124h96v328H0V124z" data-original="#CCCCCC" class="hovered-path active-path" data-old_color="#CCCCCC"/><path style="fill:#3FA9F5;" d="M184,372h96v88h-96V372z" data-original="#3FA9F5" class=""/><g>
	<path style="fill:#FFB229" d="M128,36h48v48h-48V36z" data-original="#06AAE9" class="" data-old_color="#06AAE9"/>
	<path style="fill:#FFB229" d="M208,36h48v48h-48V36z" data-original="#06AAE9" class="" data-old_color="#06AAE9"/>
	<path style="fill:#FFB229" d="M288,36h48v48h-48V36z" data-original="#06AAE9" class="" data-old_color="#06AAE9"/>
	<path style="fill:#FFB229" d="M128,116h48v48h-48V116z" data-original="#06AAE9" class="" data-old_color="#06AAE9"/>
	<path style="fill:#FFB229" d="M208,116h48v48h-48V116z" data-original="#06AAE9" class="" data-old_color="#06AAE9"/>
	<path style="fill:#FFB229" d="M288,116h48v48h-48V116z" data-original="#06AAE9" class="" data-old_color="#06AAE9"/>
	<path style="fill:#FFB229" d="M128,196h48v48h-48V196z" data-original="#06AAE9" class="" data-old_color="#06AAE9"/>
	<path style="fill:#FFB229" d="M208,196h48v48h-48V196z" data-original="#06AAE9" class="" data-old_color="#06AAE9"/>
	<path style="fill:#FFB229" d="M288,196h48v48h-48V196z" data-original="#06AAE9" class="" data-old_color="#06AAE9"/>
	<path style="fill:#FFB229" d="M128,276h48v48h-48V276z" data-original="#06AAE9" class="" data-old_color="#06AAE9"/>
	<path style="fill:#FFB229" d="M208,276h48v48h-48V276z" data-original="#06AAE9" class="" data-old_color="#06AAE9"/>
	<path style="fill:#FFB229" d="M288,276h48v48h-48V276z" data-original="#06AAE9" class="" data-old_color="#06AAE9"/>
	<path style="fill:#FFB229" d="M32,156h8v8h-8V156z" data-original="#06AAE9" class="" data-old_color="#06AAE9"/>
	<path style="fill:#FFB229" d="M64,156h8v8h-8V156z" data-original="#06AAE9" class="" data-old_color="#06AAE9"/>
	<path style="fill:#FFB229" d="M32,188h8v8h-8V188z" data-original="#06AAE9" class="" data-old_color="#06AAE9"/>
	<path style="fill:#FFB229" d="M64,188h8v8h-8V188z" data-original="#06AAE9" class="" data-old_color="#06AAE9"/>
	<path style="fill:#FFB229" d="M32,220h8v8h-8V220z" data-original="#06AAE9" class="" data-old_color="#06AAE9"/>
	<path style="fill:#FFB229" d="M64,220h8v8h-8V220z" data-original="#06AAE9" class="" data-old_color="#06AAE9"/>
	<path style="fill:#FFB229" d="M32,252h8v8h-8V252z" data-original="#06AAE9" class="" data-old_color="#06AAE9"/>
	<path style="fill:#FFB229" d="M64,252h8v8h-8V252z" data-original="#06AAE9" class="" data-old_color="#06AAE9"/>
	<path style="fill:#FFB229" d="M32,284h8v8h-8V284z" data-original="#06AAE9" class="" data-old_color="#06AAE9"/>
	<path style="fill:#FFB229" d="M64,284h8v8h-8V284z" data-original="#06AAE9" class="" data-old_color="#06AAE9"/>
	<path style="fill:#FFB229" d="M32,316h8v8h-8V316z" data-original="#06AAE9" class="" data-old_color="#06AAE9"/>
	<path style="fill:#FFB229" d="M64,316h8v8h-8V316z" data-original="#06AAE9" class="" data-old_color="#06AAE9"/>
	<path style="fill:#FFB229" d="M32,348h8v8h-8V348z" data-original="#06AAE9" class="" data-old_color="#06AAE9"/>
	<path style="fill:#FFB229" d="M64,348h8v8h-8V348z" data-original="#06AAE9" class="" data-old_color="#06AAE9"/>
	<path style="fill:#FFB229" d="M32,380h8v8h-8V380z" data-original="#06AAE9" class="" data-old_color="#06AAE9"/>
	<path style="fill:#FFB229" d="M64,380h8v8h-8V380z" data-original="#06AAE9" class="" data-old_color="#06AAE9"/>
	<path style="fill:#FFB229" d="M32,412h8v8h-8V412z" data-original="#06AAE9" class="" data-old_color="#06AAE9"/>
	<path style="fill:#FFB229" d="M64,412h8v8h-8V412z" data-original="#06AAE9" class="" data-old_color="#06AAE9"/>
	<path style="fill:#FFB229" d="M400,108h32v32h-32V108z" data-original="#06AAE9" class="" data-old_color="#06AAE9"/>
	<path style="fill:#FFB229" d="M400,172h32v32h-32V172z" data-original="#06AAE9" class="" data-old_color="#06AAE9"/>
	<path style="fill:#FFB229" d="M400,236h32v32h-32V236z" data-original="#06AAE9" class="" data-old_color="#06AAE9"/>
	<path style="fill:#FFB229" d="M400,300h32v32h-32V300z" data-original="#06AAE9" class="" data-old_color="#06AAE9"/>
	<path style="fill:#FFB229" d="M400,364h32v32h-32V364z" data-original="#06AAE9" class="" data-old_color="#06AAE9"/>
</g><path style="fill:#0378A3;" d="M232,372h48v88h-48V372z" data-original="#0378A3" class=""/></g> </svg>
