<svg xmlns="http://www.w3.org/2000/svg" viewBox="0 0 464 464" width="512" height="512" class="hovered-paths"><path d="M96 4h272v456H96V4z" data-original="#E6E6E6" fill="#e6e6e6"/><path d="M368 76h96v376h-96V76z" data-original="#B3B3B3" fill="#b3b3b3"/><path d="M0 124h96v328H0V124z" data-original="#CCCCCC" class="hovered-path active-path" data-old_color="#CCCCCC" fill="#194c80"/><path d="M184 372h96v88h-96v-88z" data-original="#3FA9F5" fill="#3fa9f5"/><path d="M128 36h48v48h-48V36zM208 36h48v48h-48V36zM288 36h48v48h-48V36zM128 116h48v48h-48v-48zM208 116h48v48h-48v-48zM288 116h48v48h-48v-48zM128 196h48v48h-48v-48zM208 196h48v48h-48v-48zM288 196h48v48h-48v-48zM128 276h48v48h-48v-48zM208 276h48v48h-48v-48zM288 276h48v48h-48v-48zM32 156h8v8h-8v-8zM64 156h8v8h-8v-8zM32 188h8v8h-8v-8zM64 188h8v8h-8v-8zM32 220h8v8h-8v-8zM64 220h8v8h-8v-8zM32 252h8v8h-8v-8zM64 252h8v8h-8v-8zM32 284h8v8h-8v-8zM64 284h8v8h-8v-8zM32 316h8v8h-8v-8zM64 316h8v8h-8v-8zM32 348h8v8h-8v-8zM64 348h8v8h-8v-8zM32 380h8v8h-8v-8zM64 380h8v8h-8v-8zM32 412h8v8h-8v-8zM64 412h8v8h-8v-8zM400 108h32v32h-32v-32zM400 172h32v32h-32v-32zM400 236h32v32h-32v-32zM400 300h32v32h-32v-32zM400 364h32v32h-32v-32z" data-original="#06AAE9" data-old_color="#06AAE9" fill="#ffb229"/><path d="M232 372h48v88h-48v-88z" data-original="#0378A3" fill="#0378a3"/></svg>