<?xml version="1.0"?>
<svg xmlns="http://www.w3.org/2000/svg" height="512px" viewBox="0 -3 512 512" width="512px"><g><path d="m212.546875 452.648438h81.351563v-244.042969l-126.296876-128.84375-126.296874 128.84375v244.042969h81.246093c.003907.0625 8.378907 0 8.847657 0h21.488281 26.046875 22.53125 10.933594zm0 0" fill="#ffe6c0" data-original="#FFE6C0"/><path d="m502 118.757812v121.78125h-176.800781l-119.371094-121.78125h132.3125v31.5h54.757813v-31.5zm0 0" fill="#aae2c9" data-original="#AAE2C9"/><path d="m338.136719 50.265625h54.761719v99.992187h-54.761719zm0 0" fill="#b5bcc9" data-original="#B5BCC9"/><path d="m323.863281 10h83.308594v40.265625h-83.308594zm0 0" fill="#b5bcc9" data-original="#B5BCC9"/><path d="m437.140625 240.539062h40.386719v212.109376h-40.386719zm0 0" fill="#98a1b3" data-original="#98A1B3"/><g fill="#cff1fb"><path d="m193.003906 179.648438c0 15.304687-12.40625 27.714843-27.710937 27.714843-15.304688 0-27.714844-12.410156-27.714844-27.714843 0-15.304688 12.410156-27.710938 27.714844-27.710938 15.304687 0 27.710937 12.40625 27.710937 27.710938zm0 0" data-original="#CFF1FB"/><path d="m105.023438 272.648438h41.035156v69.5625h-41.035156zm0 0" data-original="#CFF1FB"/><path d="m146.058594 272.648438h41.039062v69.5625h-41.039062zm0 0" data-original="#CFF1FB"/><path d="m187.097656 272.648438h41.035156v69.5625h-41.035156zm0 0" data-original="#CFF1FB"/></g><path d="m10 452.648438h492v43.113281h-492zm0 0" fill="#98a1b3" data-original="#98A1B3"/><path d="m502 250.539062c5.523438 0 10-4.476562 10-10v-121.777343c0-5.523438-4.476562-10-10-10h-99.101562v-48.496094h4.273437c5.519531 0 10-4.480469 10-10v-40.265625c0-5.523438-4.480469-10-10-10h-83.308594c-5.519531 0-10 4.476562-10 10v40.265625c0 5.519531 4.480469 10 10 10h4.273438v48.496094h-118.109375l-35.285156-36c-1.882813-1.917969-4.457032-3-7.140626-3-2.6875 0-5.261718 1.082031-7.140624 3l-157.601563 160.777343c-3.867187 3.945313-3.804687 10.277344.140625 14.144532 3.945312 3.863281 10.273438 3.800781 14.140625-.144532l14.164063-14.449218v209.558594h-21.304688c-5.523438 0-10 4.480468-10 10v43.113281c0 5.519531 4.476562 10 10 10h492c5.523438 0 10-4.480469 10-10v-43.113281c0-5.519532-4.476562-10-10-10h-14.472656v-192.109376zm-168.136719-230.539062h63.308594v20.265625h-63.308594zm49.035157 40.265625v79.992187h-34.757813l-.003906-79.992187zm-54.761719 68.496094v21.496093c0 4.835938 3.425781 8.867188 7.984375 9.796876.652344.132812 1.328125.207031 2.019531.207031h54.757813c3.796874 0 7.101562-2.117188 8.796874-5.234375.769532-1.417969 1.207032-3.042969 1.207032-4.769532v-21.496093h89.097656v101.777343h-162.597656l-99.765625-101.777343zm50.472656 208.652343v105.234376h-26.53125v-105.234376zm48.53125 0v105.234376h-28.53125v-105.234376zm-95.0625 105.234376h-28.183594v-105.234376h28.183594zm159.921875 43.113281h-472v-23.113281h102.207031c5.578125.191406 10.386719-4.464844 10.339844-10.058594-.046875-5.667969-4.777344-9.933594-10.335937-9.941406h-70.90625v-229.960938l116.296874-118.640625 116.296876 118.640625v229.960938h-71.019532c-5.53125-.175782-10.199218 4.320312-10.324218 9.832031-.128907 5.605469 4.707031 10.367187 10.320312 10.167969h279.125zm-44.859375-43.113281v-192.109376h20.386719v192.109376zm-20-125.234376h-123.246094v-84.324218l13.160157 13.425781c2.273437 2.316406 4.785156 4.023437 8.167968 4.023437h101.917969zm0 0" data-original="#000000" class="active-path" data-old_color="#000000" style="fill:#FFB229"/><path d="m165.292969 217.359375c20.792969 0 37.710937-16.914063 37.710937-37.710937 0-20.792969-16.917968-37.710938-37.710937-37.710938-20.796875 0-37.714844 16.917969-37.714844 37.710938 0 20.796874 16.917969 37.710937 37.714844 37.710937zm0-55.421875c9.765625 0 17.710937 7.945312 17.710937 17.714844 0 9.765625-7.945312 17.710937-17.710937 17.710937-9.769531 0-17.714844-7.945312-17.714844-17.710937 0-9.769532 7.945313-17.714844 17.714844-17.714844zm0 0" data-original="#000000" class="active-path" data-old_color="#000000" style="fill:#FFB229"/><path d="m105.023438 352.210938h123.109374c5.523438 0 10-4.480469 10-10v-69.5625c0-5.523438-4.476562-10-10-10h-123.109374c-5.523438 0-10 4.476562-10 10v69.5625c0 5.523437 4.476562 10 10 10zm113.109374-20h-21.035156v-49.5625h21.035156zm-41.035156 0h-21.039062v-49.5625h21.039062zm-62.074218-49.5625h21.035156v49.5625h-21.035156zm0 0" data-original="#000000" class="active-path" data-old_color="#000000" style="fill:#FFB229"/><path d="m250.222656 388.148438c0-5.519532-4.476562-10-10-10h-149.859375c-5.523437 0-10 4.480468-10 10 0 5.523437 4.476563 10 10 10h149.859375c5.523438 0 10-4.476563 10-10zm0 0" data-original="#000000" class="active-path" data-old_color="#000000" style="fill:#FFB229"/><path d="m176.828125 448.820312c-1.636719-3.925781-5.6875-6.445312-9.941406-6.136718-4.152344.300781-7.742188 3.21875-8.894531 7.21875-1.148438 4 .386718 8.457031 3.785156 10.871094 3.371094 2.398437 7.925781 2.464843 11.371094.1875 3.945312-2.605469 5.460937-7.792969 3.679687-12.140626zm0 0" data-original="#000000" class="active-path" data-old_color="#000000" style="fill:#FFB229"/></g> </svg>
