<svg xmlns="http://www.w3.org/2000/svg" height="512" viewBox="0 -3 512 512" width="512"><path d="M212.547 452.648h81.351V208.605L167.602 79.762 41.305 208.605v244.043h81.246c.004.063 8.379 0 8.847 0h81zm0 0" fill="#ffe6c0" data-original="#FFE6C0"/><path d="M502 118.758v121.781H325.2L205.827 118.758h132.313v31.5h54.757v-31.5zm0 0" fill="#aae2c9" data-original="#AAE2C9"/><path d="M338.137 50.266h54.761v99.992h-54.761zm0 0M323.863 10h83.309v40.266h-83.309zm0 0" fill="#b5bcc9" data-original="#B5BCC9"/><path d="M437.14 240.54h40.387v212.108h-40.386zm0 0" fill="#98a1b3" data-original="#98A1B3"/><g fill="#cff1fb"><path d="M193.004 179.648c0 15.305-12.406 27.715-27.711 27.715-15.305 0-27.715-12.41-27.715-27.715 0-15.304 12.41-27.71 27.715-27.71s27.71 12.406 27.71 27.71zm0 0M105.023 272.648h41.036v69.563h-41.036zm0 0" data-original="#CFF1FB"/><path d="M146.059 272.648h41.039v69.563h-41.04zm0 0M187.098 272.648h41.035v69.563h-41.035zm0 0" data-original="#CFF1FB"/></g><path d="M10 452.648h492v43.114H10zm0 0" fill="#98a1b3" data-original="#98A1B3"/><path d="M502 250.54c5.523 0 10-4.477 10-10V118.761c0-5.524-4.477-10-10-10h-99.102V60.266h4.274c5.52 0 10-4.48 10-10V10c0-5.523-4.48-10-10-10h-83.309c-5.52 0-10 4.477-10 10v40.266c0 5.52 4.48 10 10 10h4.274v48.496h-118.11l-35.285-36a9.997 9.997 0 0 0-14.281 0L2.859 233.539c-3.867 3.945-3.804 10.277.141 14.145 3.945 3.863 10.273 3.8 14.14-.145l14.165-14.45v209.56H10c-5.523 0-10 4.48-10 10v43.113c0 5.52 4.477 10 10 10h492c5.523 0 10-4.48 10-10v-43.114c0-5.52-4.477-10-10-10h-14.473V250.54zM333.863 20h63.309v20.266h-63.309zm49.035 40.266v79.992h-34.757l-.004-79.992zm-54.761 68.496v21.496a9.996 9.996 0 0 0 10.004 10.004h54.757c3.797 0 7.102-2.117 8.797-5.235a9.97 9.97 0 0 0 1.207-4.77v-21.495H492v101.777H329.402l-99.765-101.777zm50.472 208.652v105.234h-26.53V337.414zm48.532 0v105.234h-28.532V337.414zm-95.063 105.234h-28.183V337.414h28.183zM492 485.762H20v-23.114h102.207c5.578.192 10.387-4.464 10.34-10.058-.047-5.668-4.777-9.934-10.336-9.942H51.305v-229.96L167.602 94.046l116.296 118.64v229.961h-71.02c-5.53-.175-10.198 4.32-10.323 9.832-.13 5.606 4.707 10.368 10.32 10.168H492zm-44.86-43.114V250.54h20.387v192.11zm-20-125.234H303.896V233.09l13.16 13.426c2.273 2.316 4.785 4.023 8.168 4.023H427.14zm0 0" data-original="#000000" class="active-path" data-old_color="#000000" fill="#ffb229"/><path d="M165.293 217.36c20.793 0 37.71-16.915 37.71-37.712 0-20.793-16.917-37.71-37.71-37.71-20.797 0-37.715 16.917-37.715 37.71 0 20.797 16.918 37.711 37.715 37.711zm0-55.423c9.766 0 17.71 7.946 17.71 17.715 0 9.766-7.944 17.711-17.71 17.711-9.77 0-17.715-7.945-17.715-17.71 0-9.77 7.945-17.715 17.715-17.715zm0 0M105.023 352.21h123.11c5.523 0 10-4.48 10-10v-69.562c0-5.523-4.477-10-10-10h-123.11c-5.523 0-10 4.477-10 10v69.563c0 5.523 4.477 10 10 10zm113.11-20h-21.035v-49.562h21.035zm-41.035 0h-21.04v-49.562h21.04zm-62.075-49.562h21.036v49.563h-21.036zm0 0M250.223 388.148c0-5.52-4.477-10-10-10H90.363c-5.523 0-10 4.48-10 10 0 5.524 4.477 10 10 10h149.86c5.523 0 10-4.476 10-10zm0 0M176.828 448.82c-1.637-3.925-5.687-6.445-9.941-6.136-4.153.3-7.742 3.218-8.895 7.218-1.148 4 .387 8.457 3.785 10.871 3.371 2.399 7.926 2.465 11.371.188 3.946-2.606 5.461-7.793 3.68-12.14zm0 0" data-original="#000000" class="active-path" data-old_color="#000000" fill="#ffb229"/></svg>